<?xml version="1.0" encoding="UTF-8"?><svg id="Layer_1" xmlns="http://www.w3.org/2000/svg" viewBox="0 0 423.78 214.8"><defs><style>.cls-1{fill:#fff;stroke-width:0px;}</style></defs><path class="cls-1" d="m248.92,199.25c3.11,1.65,6.42,1.96,9.34,2.25,1.69.16,3.44.33,4.47.74.42.17.53.25.75.73.17.4.39.79.63,1.15.97,1.46,6.37,6.83,8.09,4.02.72-1.18.56-3.3.24-4.57-.4-1.6-1.31-2.31-2.16-3.58-3.45-7.87-13.07-4.48-18.12-7.43-1.09,2.25-2.45,4.34-4.07,6.22.28.17.56.34.83.48Z"/><path class="cls-1" d="m403.21,146.55c.95-1.49,1.59-3.17,2.11-4.85.41-1.33.42-3.5,1.11-4.66.11-.18.22-.37.34-.56,1.49-2.43,3.74-6.11,3.37-10.86.39-1.62,1.68-5.3,2.56-7.84,2.42-6.94,4.09-11.94,4.48-15.65,1.27-5.02-.36-9.53-1.47-12.57-.05-.13-.1-.27-.15-.41,2.63-1.26,4.32-3.97,4.22-6.95-.03-.81-.36-16.15-.68-30.99-.56-26.06-.93-43.2-.97-44.08-.09-2.3-1.25-4.42-3.12-5.75-1.27-.9-2.78-1.37-4.3-1.37-.72,0-1.45.11-2.15.32-10.74,3.26-20.99,8.2-30.04,12.55-.82.39-1.62.78-2.42,1.17-.12.06-.24.12-.35.18-3.63,1.99-6.78,4.59-9.83,7.11-4.97,4.1-9.25,7.64-14.27,7.64-1.21,0-2.46-.19-3.81-.58-.68-.2-1.37-.29-2.08-.29-.33,0-.67.02-1,.07-3.81.52-7.37,2.11-10.81,3.66-2.83,1.27-6.03,2.71-7.94,2.71-.43,0-.75,0-1.4-.74-.47-.53-1.01-1-1.6-1.38-.82-.52-1.66-.94-2.53-1.26-.1-1.75-.82-3.42-2.06-4.71-2.63-2.74-5.46-3.32-7.37-3.32-2.77,0-4.87,1.18-6.3,2.13-2.22-1.73-4.48-2.52-6.17-3.11-.45-.16-1.03-.36-1.36-.51-1.13-2.04-3.16-3.43-5.49-3.75-.74-.1-1.53-.15-2.59-.15-.39,0-.81,0-1.25.01-.38,0-.77.01-1.17.01h-.26c-1.37-1.52-3.35-2.46-5.52-2.46-.1,0-.2,0-.31,0-.5.02-11.89.39-19.43.64-4.35.14-7.89.25-8.56.27-.62,0-3.83.03-7.85.05-10.5.07-19.24.13-19.71.13-4,.06-7.24,3.27-7.32,7.27,0,.21-.29,15.06-.67,35.33h7.43c.37-19.83.65-34.44.67-35.17.75,0,26.81-.18,27.61-.19.59-.02,27.6-.89,28.15-.91.27,2.2,3.09,2.46,5.79,2.46.84,0,1.68-.03,2.41-.03.6,0,1.14.02,1.59.08,2.14,4.23,6.61,3.28,9.88,6.22.5,1.18,1.88,2.1,3.27,2.1.23,0,.47-.03.7-.08,2.76-.18,4.5-2.94,6.47-2.94.63,0,1.29.29,2.01,1.04-3.89,2.04-14.59,7.3-5.04,9.62,2.97-.46,5.43-3.37,8.36-3.37.83,0,1.7.23,2.62.82,2.1,2.4,4.48,3.28,6.99,3.28,6.36,0,13.65-5.61,19.75-6.44,2.09.61,4.04.88,5.89.88,11.61,0,18.74-10.77,27.67-15.66,9.43-4.52,20.28-9.93,31.4-13.31.07,1.56,1.59,73.38,1.64,75.01-10.67,3.25-.07,10.89-2.53,18.37-.23,5.86-8.16,23.61-7.09,25.36.25,3.2-2.27,6.04-3.38,8.31-.87,1.76-.7,4.2-1.47,6.08-.45,1.11-1.03,2.22-1.87,3.1-1.8,1.88-2.97,2.61-1.81,5.62.18.47.43.93.83,1.24,2.71,2.05,6.87-1.95,8.17-3.98Z"/><path class="cls-1" d="m286.99,86.83c-4.63,3.78-11.14,7.03-19.52,9.73l-.14,22.41c5.68-1.73,10.4-3.54,14.17-5.44,3.76-1.89,7.66-4.37,11.69-7.43l.11,103.15c2.71,1.31,5.67,2.09,8.54,1.8,1.98-.2,4.1-.93,5.71-1.99,1.37-.9,2.55-2.35,4.35-2.48.45-.03.93.03,1.35.24,1.32.67,1.7,2.38,2.61,3.43,1.22,1.39,2.65,2.49,4.29,3.32.33.17,1.79.76,1.79,1.22,0,0,0-8.28,0-8.28h0V72.82h-24.08c-2.62,5.56-6.25,10.23-10.88,14.02Z"/><path class="cls-1" d="m363.74,65.39c-2.62,5.56-6.25,10.23-10.88,14.02-4.64,3.78-11.14,7.03-19.52,9.73l-.14,22.41c5.68-1.73,10.4-3.54,14.17-5.44,3.76-1.89,7.66-4.37,11.69-7.43l.09,86.66h0c0,2.95,0,5.89,0,8.84,3.85.75,6.9-1.22,8.47-4.41,1.15-2.33,1.33-4.51.96-7.22-.34-2.5-.89-5.15-.04-7.44.59-1.6,1.72-2.52,3.11-3.39,1.37-.85,2.49-2.01,3.68-3.08,1.03-.93,1.69-3.08,3.25-3.16,2.04-.1,9.25,1.28,9.25-2.2,0-3.37,0-10.13,0-10.14,0,0,0-87.74,0-87.74h-24.08Z"/><rect class="cls-1" x="401.75" y="178.05" width="22.02" height="22.02"/><polygon class="cls-1" points="50.88 142.18 66.79 142.18 66.79 67.93 50.88 67.93 50.88 97.09 15.81 97.09 15.81 67.93 0 67.93 0 142.18 15.81 142.18 15.81 111.01 50.88 111.01 50.88 142.18"/><path class="cls-1" d="m113.33,136.61v5.57h14.14v-34.73c0-15.47-11.24-20.37-23.49-20.37-8.46,0-16.92,2.67-23.49,8.46l5.34,9.46c4.56-4.23,9.91-6.35,15.7-6.35,7.12,0,11.8,3.56,11.8,9.02v7.46c-3.56-4.34-9.91-6.57-17.03-6.57-8.57,0-18.7,4.56-18.7,17.14s10.13,17.81,18.7,17.81c7.01,0,13.36-2.56,17.03-6.9Zm-11.36-2.67c-5.57,0-10.13-2.89-10.13-7.9s4.56-8.13,10.13-8.13c4.56,0,9.02,1.56,11.36,4.68v6.68c-2.34,3.12-6.79,4.68-11.36,4.68Z"/><path class="cls-1" d="m187.81,133.72l-9.24-8.57c-2.56,3.56-6.46,5.79-11.36,5.79-8.57,0-14.58-6.35-14.58-15.7s6.01-15.59,14.58-15.59c4.9,0,8.79,2.12,11.36,5.79l9.24-8.57c-3.56-5.01-10.24-9.8-21.26-9.8-16.59,0-28.5,11.69-28.5,28.17s11.91,28.28,28.5,28.28c11.02,0,17.7-4.79,21.26-9.8Z"/><polygon class="cls-1" points="211.18 112.35 211.18 67.93 197.05 67.93 197.05 142.18 211.18 142.18 211.18 128.38 217.64 121.47 231.89 142.18 249.59 142.18 227.66 112.79 248.92 88.41 231.56 88.41 211.18 112.35"/><path class="cls-1" d="m43.78,178.79c0-11.93-8.26-20.79-20.25-20.79s-20.25,8.86-20.25,20.79,8.26,20.79,20.25,20.79,20.25-8.86,20.25-20.79Zm-20.25,15.43c-8.62,0-14.04-6.63-14.04-15.43s5.42-15.43,14.04-15.43,14.04,6.57,14.04,15.43-5.55,15.43-14.04,15.43Z"/><polygon class="cls-1" points="97.42 175.54 75.18 175.54 75.18 158.66 69.16 158.66 69.16 198.86 75.18 198.86 75.18 180.9 97.42 180.9 97.42 198.86 103.45 198.86 103.45 158.66 97.42 158.66 97.42 175.54"/><rect class="cls-1" x="130.45" y="158.66" width="6.03" height="40.2"/><polygon class="cls-1" points="173.37 157.46 159.08 200.07 163.24 200.07 177.53 157.46 173.37 157.46"/><path class="cls-1" d="m218.63,158c-11.99,0-20.25,8.86-20.25,20.79s8.26,20.79,20.25,20.79,20.25-8.86,20.25-20.79-8.26-20.79-20.25-20.79Zm0,36.22c-8.62,0-14.04-6.63-14.04-15.43s5.42-15.43,14.04-15.43,14.04,6.57,14.04,15.43-5.55,15.43-14.04,15.43Z"/></svg>