<?xml version="1.0" encoding="utf-8"?>
<!-- Generator: Adobe Illustrator 27.7.0, SVG Export Plug-In . SVG Version: 6.00 Build 0)  -->
<svg version="1.1" id="Layer_1" xmlns="http://www.w3.org/2000/svg" xmlns:xlink="http://www.w3.org/1999/xlink" x="0px" y="0px"
	 viewBox="0 0 376 200" style="enable-background:new 0 0 376 200;" xml:space="preserve">
<style type="text/css">
	.st0{fill:#FFFFFF;}
	.st1{fill:none;stroke:#000000;stroke-width:4;stroke-miterlimit:10;}
	.st2{fill:none;stroke:#FFFFFF;stroke-width:4;stroke-miterlimit:10;}
</style>
<rect x="0" class="st0" width="188" height="200"/>
<rect x="188" width="188" height="200"/>
<g>
	<path id="HackOHI_x2F_O" d="M104,174.85c-0.06-0.1-0.18-0.14-0.26-0.09c-0.23,0.14-0.89-0.79-0.88-1.27c0-0.69-0.48-1.64-0.92-1.82
		c-0.59-0.24-1.24-0.88-1.73-1.7c-0.23-0.39-0.51-0.8-0.62-0.91c-0.44-0.45-1.36-0.78-2.24-0.79c-1.98-0.02-2.97-1.25-2.97-3.7
		c0-0.37-0.14-0.86-0.32-1.1c-0.17-0.23-0.29-0.58-0.27-0.78c0.29-2.04,0.24-2.27-0.55-2.56c-0.35-0.13-1.39,0.21-2.44,0.8
		c-0.32,0.18-0.69,0.23-1.09,0.16c-0.6-0.11-1.53,0.28-1.53,0.65c0,0.29-0.93,1.28-1.25,1.32c-0.09,0.01-0.21,0.04-0.26,0.07
		c-0.05,0.02-0.15,0.06-0.22,0.08c-0.69,0.19-1.44,1.12-1.2,1.5c0.05,0.09-0.14,0.36-0.43,0.6c-0.6,0.5-1.78,0.6-2.52,0.22
		c-0.61-0.32-1.2-0.18-1.8,0.44c-0.66,0.67-0.97,0.61-1.26-0.25c-0.23-0.69-0.8-1.36-1.14-1.36c-0.1,0-0.18-0.07-0.18-0.16
		c0-0.14-0.4-0.27-1.5-0.49c-0.43-0.09-1.33-0.24-1.64-0.28c-0.12-0.02-0.55-0.31-0.95-0.65c-0.56-0.48-0.9-0.63-1.46-0.65
		c-0.4-0.01-0.82,0.04-0.93,0.12c-0.11,0.08-0.43,0.17-0.71,0.2c-1.31,0.15-2.39,0.83-2.23,1.4c0.02,0.08-0.08,0.36-0.22,0.64
		c-0.27,0.52-0.68,0.79-0.89,0.58c-0.07-0.07-0.17-0.12-0.24-0.13c-0.06,0-0.47-0.18-0.89-0.4c-0.43-0.21-0.85-0.34-0.93-0.29
		c-0.08,0.05-0.38-0.07-0.65-0.26c-0.36-0.26-0.5-0.51-0.5-0.9c0-0.58-0.66-1.45-1-1.32c-0.28,0.11-1.23-0.75-1.09-0.98
		c0.14-0.22-0.25-0.82-0.77-1.19c-0.35-0.24-0.53-0.3-1.6-0.53c-0.24-0.05-0.51-0.19-0.62-0.32c-0.37-0.45-1.23-0.67-1.79-0.46
		c-0.29,0.11-0.56,0.2-0.61,0.21s-0.26,0.07-0.48,0.15c-0.41,0.16-1.73,0.23-2.18,0.12c-0.15-0.04-0.58-0.22-0.97-0.41
		c-0.39-0.19-0.77-0.36-0.84-0.37s-0.15-0.04-0.18-0.06s-0.2-0.06-0.4-0.1c-0.68-0.11-1.13-0.24-1.49-0.44
		c-0.46-0.24-0.79-1.47-0.65-2.36c0.13-0.81-0.27-1.85-1.24-3.16c-0.37-0.51-0.68-1.16-0.73-1.56c-0.09-0.69-0.08-0.69,0.86-1.17
		c8.99-4.48,12.87-14.39,9.55-24.37c-2.32-6.96-7.72-11.7-14.82-12.99c-2.92-0.53-7.25-0.24-10.18,0.69l-1.27,0.4l0.06-2.85
		c0.07-3.12,0.18-5.04,0.29-5.16c0.04-0.04,0.34,1.16,0.66,2.67c0.32,1.51,0.59,2.74,0.6,2.74c0.25-0.01,7.96-1.75,8.02-1.82
		c0.05-0.05-0.67-3.58-1.6-7.84c-0.93-4.26-1.63-7.8-1.56-7.87c0.15-0.14,17.25-3.88,17.34-3.8c0.03,0.03,0.82,3.56,1.75,7.83
		c0.93,4.28,1.71,7.8,1.74,7.83c0.04,0.05,8.11-1.7,8.16-1.77c0.04-0.05-8.15-37.51-8.21-37.56c-0.13-0.1-8.11,1.73-8.11,1.85
		c0,0.08,0.71,3.39,1.57,7.36c0.86,3.97,1.55,7.23,1.54,7.24c-0.02,0.01-3.93,0.87-8.69,1.91c-5.9,1.28-8.69,1.82-8.77,1.69
		c-0.07-0.11-0.82-3.39-1.67-7.31c-1.77-8.14-1.68-7.4-1.42-16.52c0.14-8.46,0.66-16.92,0.48-25.38l4.84,0
		c2.66,0,7.07-0.05,9.79-0.1c9.44-0.2,9.79-0.21,23.14-0.46c2.21-0.04,4.1-0.12,4.19-0.18c0.09-0.06,0.21,0.13,0.27,0.4
		c0.15,0.69,0.96,1.25,2.13,1.46c0.98,0.18,1.68,0.02,1.68-0.38c0-0.24,0.5,0.04,1.15,0.66c0.52,0.49,1.62,1.31,1.77,1.31
		c0.04,0,0.27,0.2,0.51,0.44c0.24,0.24,0.59,0.44,0.77,0.44c0.18,0,0.42,0.1,0.54,0.21c0.12,0.12,0.21,0.15,0.21,0.07
		c0-0.08,0.12-0.05,0.27,0.08c0.15,0.12,0.27,0.16,0.27,0.09c0-0.07,0.1-0.05,0.22,0.05c0.12,0.1,0.55,0.23,0.94,0.3
		c0.91,0.15,1.8,0.69,2.01,1.21c0.24,0.61,1.93,2.26,2.31,2.26c0.1,0,0.18,0.07,0.18,0.16c0,0.15,0.81,0.44,0.94,0.33
		c0.03-0.03,0.19,0.06,0.34,0.19c0.2,0.17,0.37,0.18,0.62,0.05c0.19-0.1,0.39-0.14,0.44-0.08c0.2,0.2,1.14-0.52,1.46-1.12
		c0.18-0.34,0.31-0.85,0.29-1.13c-0.05-0.71,0.34-0.66,0.93,0.11c0.79,1.04,1.19,1.34,1.59,1.2c1.09-0.38,2.07-0.05,1.56,0.53
		c-0.36,0.4-0.08,0.99,0.68,1.44c0.28,0.17,0.52,0.37,0.52,0.46c0,0.28,2.61,2.84,2.9,2.84c0.16,0,0.29,0.07,0.29,0.15
		c0,0.08,0.4,0.37,0.88,0.63c0.49,0.27,0.88,0.43,0.88,0.36c0-0.07,0.1-0.04,0.22,0.05c0.38,0.3,1.6,0.2,2.35-0.19
		c0.39-0.21,0.75-0.42,0.8-0.48c0.05-0.06,0.54-0.32,1.1-0.59c0.79-0.38,1.29-0.49,2.3-0.51c1.28-0.03,1.98-0.31,3.86-1.53
		c0.28-0.18,1.33-0.58,1.33-0.51c0,0.02,0.2-0.07,0.44-0.2s0.53-0.26,0.64-0.28c0.11-0.02,0.47-0.16,0.8-0.3
		c1.81-0.82,2.88-0.92,3.66-0.35c0.89,0.66,3.19,1.05,4.03,0.69c0.19-0.08,0.4-0.17,0.48-0.19s0.17-0.05,0.22-0.07
		c0.1-0.04,1.31-0.05,1.37-0.01c0.02,0.02,0.16,0.05,0.31,0.09c0.15,0.03,0.34,0.08,0.44,0.1c0.32,0.09,1.05-0.32,1.77-0.98
		c0.39-0.36,1.07-0.82,1.51-1.03s1.61-1.15,2.6-2.1c0.99-0.95,1.89-1.73,2-1.73c0.25,0,0.81-0.55,1.7-1.68
		c0.38-0.49,0.77-0.92,0.87-0.95c0.09-0.04,0.43-0.32,0.74-0.62c0.31-0.3,0.72-0.65,0.89-0.76c1.27-0.85,1.69-1.11,1.82-1.11
		c0.08,0,0.25-0.12,0.37-0.26c0.12-0.15,0.42-0.26,0.67-0.26c0.46,0,3.17-1.22,3.62-1.63c0.47-0.43,3.57-2.05,3.62-1.89
		c0.01,0.04,0.17-0.05,0.35-0.22c0.18-0.16,0.39-0.3,0.46-0.31c0.07-0.01,0.15-0.02,0.18-0.03c0.22-0.07,0.85-0.19,1.28-0.25
		c0.29-0.04,0.73-0.12,0.97-0.18c0.24-0.06,0.64-0.14,0.87-0.19s0.93-0.37,1.55-0.71c0.62-0.34,1.12-0.56,1.12-0.49
		c0,0.08,0.23-0.08,0.51-0.35c0.34-0.32,0.55-0.42,0.64-0.29c0.08,0.13,0.19,0.14,0.33,0.03c0.12-0.1,0.45-0.22,0.74-0.28
		c0.84-0.17,0.87-0.18,1.1-0.32c0.12-0.08,0.22-0.09,0.22-0.03c0,0.06,0.22-0.01,0.49-0.15c0.41-0.22,0.81-0.39,1.28-0.55
		c0.05-0.02,0.33-0.13,0.62-0.25c0.29-0.12,0.61-0.24,0.71-0.26c0.1-0.02,0.6-0.25,1.12-0.51s1.17-0.61,1.18-0.48
		c0.55,5.45,0.44,10.92,0.54,16.39l-2.68,0.57c-1.47,0.31-2.73,0.63-2.79,0.69c-0.06,0.07-1.51,2.99-3.23,6.49
		c-1.71,3.5-3.83,7.81-4.7,9.58l-1.58,3.21l-1.78-8.16c-0.98-4.49-1.82-8.19-1.86-8.24c-0.1-0.1-7.76,1.53-7.94,1.7
		c-0.11,0.1,7.88,37.3,8.06,37.53c0.03,0.04,1.85-0.32,4.04-0.79c3.59-0.77,3.99-0.9,3.98-1.21c0-0.19-0.54-2.78-1.2-5.75l-1.19-5.4
		l1.04-2.08l1.04-2.08l5.7,4.9c4.04,3.48,5.72,4.68,6.08,5.24l0.04,3.07c-0.21-0.05-1.29,0.43-1.6,0.72
		c-0.26,0.23-0.32,0.23-0.53,0.01c-0.16-0.17-0.36-0.21-0.62-0.11c-0.21,0.08-0.41,0.11-0.45,0.07c-0.13-0.13-1.74,1.67-1.74,1.95
		c0,0.15,0.12,0.32,0.26,0.37c0.14,0.05,0.3,0.24,0.36,0.41c0.05,0.17,0.27,0.5,0.49,0.73c0.38,0.4,0.44,0.55,0.56,1.33
		c0.03,0.19,0.07,0.4,0.08,0.46c0.01,0.06,0.22,0.33,0.46,0.61s0.41,0.53,0.38,0.56c-0.03,0.03-0.52-0.16-1.1-0.41
		c-1.09-0.48-2.48-0.94-4.14-1.34c-1.49-0.36-6.44-0.32-8.29,0.08c-5.23,1.12-9.38,3.53-12.29,7.16c-2.76,3.44-4.05,7.23-4.09,11.99
		c-0.06,8.55,4.71,16.04,12.1,19.02c1.47,0.59,4.07,1.23,5.03,1.24l0.58,0l-1.03,1.03c-1.26,1.26-2.41,2.6-2.37,2.76
		c0.02,0.06-0.13,0.32-0.33,0.57c-0.2,0.25-0.36,0.56-0.36,0.69c0,0.13-0.27,0.28-0.61,0.35c-0.67,0.12-2.05,1.2-2.05,1.59
		c0,0.14-0.09,0.25-0.2,0.25c-0.11,0-0.16,0.14-0.12,0.31c0.07,0.26-0.04,0.31-0.64,0.29c-0.82-0.03-0.96,0.04-2.63,1.12
		c-0.66,0.43-1.39,0.8-1.64,0.83c-0.39,0.04-0.47-0.05-0.69-0.8c-0.42-1.41-0.83-1.87-1.85-2.05c-0.14-0.02-0.74,0.46-1.34,1.07
		c-0.6,0.61-1.25,1.17-1.44,1.23c-0.61,0.21-0.93,0.88-1.05,2.24c-0.06,0.72-0.18,1.38-0.26,1.46c-0.08,0.08-0.34,0.04-0.56-0.1
		c-0.65-0.39-2.36-0.28-3.02,0.21c-0.48,0.35-0.53,0.47-0.45,1.09c0.09,0.68-0.04,0.9-0.55,0.98c-0.3,0.04-0.74,0.63-0.62,0.82
		c0.05,0.08-0.12,0.31-0.38,0.51c-0.31,0.24-0.43,0.46-0.35,0.66c0.06,0.16,0.13,0.39,0.15,0.5c0.02,0.12,0.08,0.26,0.14,0.32
		c0.06,0.06,0.07,0.34,0.02,0.64c-0.05,0.29,0,0.63,0.1,0.75c0.13,0.16,0.09,0.4-0.12,0.83c-0.25,0.51-0.41,0.61-0.92,0.64
		c-0.34,0.02-0.76,0.03-0.94,0.04c-0.26,0.01-0.31,0.14-0.25,0.71c0.05,0.54,0.24,0.86,0.82,1.42c0.8,0.77,0.79,0.71,0.35,2.26
		c-0.19,0.67-0.17,0.8,0.16,1.27c0.69,0.97,0.28,1.26-0.66,0.47c-0.29-0.24-0.64-0.44-0.78-0.44c-0.37,0-0.78,0.53-0.9,1.15
		c-0.17,0.9-0.46,1.5-0.73,1.5c-0.14,0-0.29,0.09-0.32,0.2c-0.1,0.3-0.98,0.03-1.19-0.36c-0.13-0.25-0.06-0.46,0.35-0.95l0.52-0.63
		l-0.64-1.25c-0.68-1.32-1.36-1.98-1.71-1.63c-0.29,0.29-0.48,0.23-0.48-0.15c0-0.59-0.81-1.39-1.35-1.33
		c-0.58,0.06-1,0.46-1.04,0.99c-0.02,0.26-0.32,0.6-0.81,0.95c-0.43,0.3-0.79,0.62-0.79,0.71c0,0.09-0.12,0.36-0.26,0.6
		c-0.14,0.24-0.23,0.56-0.21,0.71s-0.25,0.58-0.59,0.97c-0.58,0.65-0.62,0.78-0.53,1.52c0.16,1.34-0.03,1.84-0.86,2.29
		c-1.77,0.96-2.11,1.77-1.17,2.76c0.36,0.37,0.57,0.78,0.6,1.2c0.03,0.35,0.11,0.72,0.17,0.82s0.05,0.28-0.03,0.4
		c-0.2,0.32-0.24,1.7-0.04,1.82c0.09,0.06,0.16,0.28,0.16,0.5c0,0.22,0.09,0.48,0.19,0.59c0.14,0.14,0.13,0.37-0.04,0.83
		c-0.13,0.35-0.26,0.6-0.3,0.56c-0.04-0.04-0.31,0-0.6,0.08c-0.33,0.09-0.69,0.08-0.95-0.04c-0.91-0.42-2.06,0.39-2.13,1.48
		c-0.07,1.04-0.3,2.88-0.4,3.15c-0.05,0.15-0.12,0.46-0.15,0.69c-0.08,0.57-0.6,1.07-1.24,1.17c-0.29,0.05-0.69,0.12-0.91,0.17
		s-0.44,0-0.5-0.1c-0.08-0.13-0.19-0.12-0.36,0.02c-0.14,0.11-0.25,0.15-0.25,0.07s-0.1-0.05-0.23,0.06
		c-0.12,0.1-0.42,0.22-0.66,0.27c-0.46,0.09-0.91,0.23-1.5,0.47c-0.8,0.33-1.07,0.41-1.27,0.38c-0.11-0.02-0.26,0.05-0.32,0.15
		C104.57,175.08,104.14,175.08,104,174.85L104,174.85z M72.46,143.89c2.09-0.45,3.84-0.85,3.87-0.88c0.04-0.03-0.7-3.57-1.64-7.87
		c-0.94-4.3-1.67-7.85-1.63-7.89c0.06-0.06,17.34-3.89,17.42-3.86c0.01,0.01,0.79,3.52,1.72,7.8c0.93,4.28,1.73,7.82,1.78,7.87
		c0.04,0.04,1.89-0.31,4.11-0.79c3.12-0.67,4.02-0.93,3.99-1.13c-0.12-0.81-8.11-37.22-8.18-37.29c-0.05-0.05-1.87,0.3-4.05,0.77
		c-2.78,0.6-3.97,0.93-4,1.11c-0.02,0.14,0.66,3.44,1.52,7.33c0.86,3.9,1.53,7.11,1.5,7.15c-0.03,0.04-3.95,0.91-8.7,1.95
		c-5.92,1.29-8.68,1.82-8.75,1.69c-0.06-0.11-0.8-3.38-1.64-7.28c-0.84-3.9-1.56-7.11-1.59-7.14c-0.12-0.13-7.92,1.65-7.99,1.82
		c-0.04,0.1,1.75,8.54,3.97,18.74s4.04,18.58,4.04,18.63C68.21,144.78,68.75,144.69,72.46,143.89L72.46,143.89z M113.49,134.92
		c2.4-0.51,3.94-0.92,3.94-1.05c0-0.28-8.09-37.31-8.17-37.4c-0.1-0.1-7.76,1.57-7.93,1.73c-0.08,0.08,1.68,8.49,3.91,18.7
		c2.23,10.21,4.05,18.63,4.05,18.7C109.29,135.82,109.3,135.82,113.49,134.92z M124.56,132.3c1.8-0.39,2.26-0.55,2.26-0.78
		c0-0.25,3.96-36.97,4.2-38.97c0.04-0.36,0.01-0.66-0.08-0.66c-0.27,0-4.98,1.06-5.14,1.16c-0.08,0.05-0.15,0.33-0.15,0.62
		s-0.93,9.07-2.07,19.51s-2.07,19.16-2.07,19.39c0,0.34,0.07,0.39,0.4,0.32C122.12,132.83,123.32,132.57,124.56,132.3L124.56,132.3z
		 M75.19,101.17c2.39-0.51,4.37-0.95,4.4-0.98c0.04-0.03,0.28-1.58,0.55-3.46l0.48-3.41l7.78-1.71c4.28-0.94,7.87-1.72,7.98-1.72
		c0.11-0.01,1.04,1.29,2.07,2.88l1.87,2.89l4.53-0.98c2.49-0.54,4.54-1.03,4.56-1.09c0.07-0.22-22.53-34.35-22.74-34.35
		c-0.24,0-9.87,2.09-9.94,2.16c-0.02,0.02-1.42,9-3.1,19.94c-1.68,10.95-3.11,20.14-3.17,20.42c-0.08,0.39-0.05,0.49,0.13,0.42
		C70.74,102.14,72.8,101.68,75.19,101.17L75.19,101.17z M81.41,85.21c0-0.61,2.11-16.26,2.21-16.35c0.08-0.08,9.12,14.16,9.05,14.24
		c-0.04,0.04-11.06,2.5-11.2,2.5C81.44,85.61,81.41,85.43,81.41,85.21z M128.46,90.19c3.01-0.53,5.76-1.63,7.9-3.15
		c1.22-0.86,3.31-2.98,4.11-4.15c1.08-1.59,2.75-5.33,2.49-5.59c-0.17-0.17-7.42-1.85-7.58-1.75c-0.09,0.05-0.16,0.2-0.16,0.33
		c0,0.58-1.38,2.88-2.33,3.9c-2.02,2.15-4.04,3.07-7.08,3.22c-6.24,0.3-11.09-3.71-12.43-10.28c-1.12-5.47,1.39-10.93,6.12-13.32
		c4.02-2.03,8.6-1.47,11.83,1.46c0.58,0.52,1.1,0.95,1.16,0.95c0.19,0,6.13-4.8,6.13-4.95c0-0.08-0.5-0.6-1.1-1.15
		c-3.54-3.24-6.99-4.78-11.22-5.01c-5.87-0.32-12.01,2.02-16.15,6.14c-5.34,5.32-6.92,12.88-4.32,20.6
		C109.01,86.86,118.15,92.01,128.46,90.19L128.46,90.19z M36.29,143.67c-1.45-0.37-3.57-1.53-4.67-2.56l-0.93-0.87l0.12-3.6
		c0.07-1.98,0.14-4.04,0.17-4.57c0.09-2.01,0.32-9.31,0.31-9.88c-0.01-0.53,0.09-0.66,1.06-1.28c3.38-2.18,7.93-2.53,11.34-0.88
		c4.14,2.01,6.86,6.81,6.88,12.15c0.01,2.34-0.29,3.65-1.32,5.75c-1.26,2.58-3.51,4.47-6.53,5.48
		C41.21,143.93,37.82,144.06,36.29,143.67z M155.51,118.13c-5.8-0.76-10.08-6.38-10.06-13.21c0.01-3.65,0.93-6,3.27-8.33
		c1.57-1.56,3.06-2.41,5.25-3c1.38-0.37,4.66-0.42,5.84-0.08c1.52,0.43,3.28,1.41,4.41,2.46c0.98,0.9,1.1,1.08,0.93,1.38
		c-0.11,0.19-0.32,0.8-0.47,1.34c-0.15,0.55-0.39,1.09-0.54,1.22c-0.15,0.12-0.27,0.33-0.27,0.47c0,0.14-0.11,0.43-0.25,0.64
		c-0.15,0.23-0.24,0.75-0.22,1.28c0.03,0.68-0.06,1.01-0.37,1.43c-0.35,0.48-0.42,0.83-0.51,2.83c-0.07,1.45-0.19,2.38-0.34,2.55
		c-0.29,0.34-0.49,1.37-0.29,1.5c0.08,0.05,0.11,0.26,0.06,0.46s-0.15,0.3-0.2,0.21c-0.17-0.25-0.7-0.4-0.99-0.29
		c-0.34,0.13-0.34,0.94-0.02,1.57c0.28,0.55,0.08,1.07-0.48,1.25c-0.28,0.09-0.43,0.58-0.31,1.05c0.2,0.8,0.16,0.92-0.61,1.68
		c-0.44,0.44-0.81,0.96-0.81,1.17C158.52,118.27,157.58,118.4,155.51,118.13L155.51,118.13z M165.35,64.34
		c-1.89-1.55-3.47-2.89-3.5-2.99c-0.07-0.2,6.38-12.44,6.49-12.32l0.51,18.14C168.82,67.16,167.24,65.89,165.35,64.34L165.35,64.34z
		"/>
</g>
<g>
	<path class="st0" d="M252.16,148.52V68.32l-15.41,16.27l-7.2-7.34l24.05-24.77h10.51v96.05H252.16z"/>
	<path class="st0" d="M300.98,148.52V68.32l-15.41,16.27l-7.2-7.34l24.05-24.77h10.51v96.05H300.98z"/>
</g>
<polyline class="st1" points="188,12 12,12 12,188 188,188 "/>
<polyline class="st2" points="188,12 364,12 364,188 188,188 "/>
</svg>
