<?xml version="1.0" encoding="UTF-8" standalone="no"?>
<svg
   xmlns:dc="http://purl.org/dc/elements/1.1/"
   xmlns:cc="http://creativecommons.org/ns#"
   xmlns:rdf="http://www.w3.org/1999/02/22-rdf-syntax-ns#"
   xmlns:svg="http://www.w3.org/2000/svg"
   xmlns="http://www.w3.org/2000/svg"
   viewBox="0 0 360.33334 447.32001"
   height="447.32001"
   width="360.33334"
   xml:space="preserve"
   id="svg2"
   version="1.1"><metadata
     id="metadata8"><rdf:RDF><cc:Work
         rdf:about=""><dc:format>image/svg+xml</dc:format><dc:type
           rdf:resource="http://purl.org/dc/dcmitype/StillImage" /></cc:Work></rdf:RDF></metadata><defs
     id="defs6" /><g
     transform="matrix(1.3333333,0,0,-1.3333333,0,447.32)"
     id="g10"><g
       transform="scale(0.1)"
       id="g12"><path
         id="path14"
         style="fill:#52c6dd;fill-opacity:1;fill-rule:nonzero;stroke:none"
         d="m 195.898,235.73 c 57.719,0 105.676,51.211 105.676,115.418 0,64.211 -47.957,115.43 -105.676,115.43 -56.902,0 -104.855,-51.219 -104.855,-115.43 0,-64.207 47.953,-115.418 104.855,-115.418 z m -92.66,-91.859 c 17.063,-34.141 51.215,-57.6991 90.223,-57.6991 56.898,0 102.418,49.5781 102.418,110.5271 v 4.071 l -1.617,0.82 C 262.555,169.891 221.906,150.371 176.395,150.371 78.8555,150.371 0,240.602 0,351.148 0,462.512 78.8555,551.93 176.395,551.93 c 45.511,0 86.16,-19.508 117.867,-52.02 l 1.617,0.801 v 40.648 h 91.043 V 196.699 C 386.922,87.7891 306.449,-0.0117188 197.527,-0.0117188 124.367,-0.0117188 60.9648,39.0195 26.8359,98.3516 l 76.4021,45.5194" /><path
         id="path16"
         style="fill:#52c6dd;fill-opacity:1;fill-rule:nonzero;stroke:none"
         d="m 715.301,403.988 0.812,1.621 c -20.312,37.391 -56.082,62.59 -97.539,62.59 -43.082,0 -76.406,-23.578 -98.351,-62.59 l 0.812,-1.621 z m -10.559,-130.867 63.391,-62.59 c -36.57,-37.402 -87.785,-60.16 -143.86,-60.16 -112.183,0 -201.597,89.418 -201.597,200.777 0,111.364 86.976,200.782 195.898,200.782 108.11,0 195.086,-89.418 195.086,-200.782 0,-17.878 -1.625,-22.757 -1.625,-22.757 H 513.719 c 0,-42.262 49.586,-91.852 106.484,-91.852 33.328,0 62.582,14.633 84.539,36.582" /><path
         id="path18"
         style="fill:#52c6dd;fill-opacity:1;fill-rule:nonzero;stroke:none"
         d="M 943.016,351.148 V 160.941 H 851.98 v 380.418 h 91.036 V 495.02 l 1.629,-0.809 c 30.886,38.211 72.355,57.719 115.425,57.719 162.56,0 166.63,-147.942 166.63,-193.469 v -197.52 h -91.03 v 190.207 c 0,45.512 -0.82,115.43 -95.1,115.43 -53.656,0 -97.554,-51.219 -97.554,-115.43" /><path
         id="path20"
         style="fill:#52c6dd;fill-opacity:1;fill-rule:nonzero;stroke:none"
         d="m 1462.26,466.578 c -58.53,0 -105.67,-51.219 -105.67,-114.609 0,-64.219 47.14,-115.43 105.67,-115.43 56.9,0 104.85,51.211 104.85,115.43 0,63.39 -47.95,114.609 -104.85,114.609 z m 19.51,-316.207 c -46.33,0 -86.16,18.707 -118.68,52.027 l -1.63,-0.808 V 10.5703 h -91.03 V 541.359 h 91.03 v -39.828 l 1.63,-0.82 c 32.52,31.711 72.35,51.219 118.68,51.219 97.54,0 176.39,-89.418 176.39,-200.782 0,-111.359 -78.85,-200.777 -176.39,-200.777" /><path
         id="path22"
         style="fill:#52c6dd;fill-opacity:1;fill-rule:nonzero;stroke:none"
         d="m 1884.9,236.539 c 57.71,0 104.85,50.402 104.85,114.609 0,64.211 -47.14,115.43 -104.85,115.43 -56.91,0 -104.86,-51.219 -104.86,-115.43 0,-64.207 47.95,-114.609 104.86,-114.609 z m -19.52,315.391 c 45.52,0 86.17,-19.508 117.88,-52.02 l 1.61,0.801 v 40.648 h 91.04 V 160.941 h -91.04 v 39.008 l -1.61,1.641 c -31.71,-31.699 -72.36,-51.219 -117.88,-51.219 -97.53,0 -176.39,89.418 -176.39,200.777 0,111.364 78.86,200.782 176.39,200.782" /><path
         id="path24"
         style="fill:#52c6dd;fill-opacity:1;fill-rule:nonzero;stroke:none"
         d="m 2456.27,210.531 c -36.57,-37.402 -87.78,-60.16 -143.86,-60.16 -112.18,0 -201.6,89.418 -201.6,200.777 0,111.364 89.42,200.782 201.6,200.782 56.08,0 107.29,-22.77 143.86,-60.16 l -64.22,-60.149 c -20.31,21.949 -47.94,34.957 -79.64,34.957 -61.79,0 -110.55,-52.027 -110.55,-115.43 0,-63.398 48.76,-114.609 110.55,-114.609 31.7,0 60.95,13.813 81.28,35.762 l 62.58,-61.77" /><path
         id="path26"
         style="fill:#52c6dd;fill-opacity:1;fill-rule:nonzero;stroke:none"
         d="M 2639.35,453.57 V 160.941 H 2548.3 V 453.57 h -63.1 v 87.789 h 63.1 v 170.692 h 91.05 V 541.359 h 63.11 V 453.57 h -63.11" /><path
         id="path28"
         style="fill:#f1476c;fill-opacity:1;fill-rule:nonzero;stroke:none"
         d="m 2251.91,2729.53 -454.41,-314.92 -446.27,309.91 -446.933,-310.37 -453.887,315.2 900.82,625.56 900.68,-625.38" /><path
         id="path30"
         style="fill:#52c6dd;fill-opacity:1;fill-rule:nonzero;stroke:none"
         d="m 904.297,1793.42 v 620.73 L 450.41,2729.35 V 1478.23 l 900.82,-625.57 v 630.39 l -446.933,310.37" /><path
         id="path32"
         style="fill:#52c6dd;fill-opacity:1;fill-rule:nonzero;stroke:none"
         d="m 1351.23,2104.2 v -621.15 l 448.35,308.96 z" /><path
         id="path34"
         style="fill:#0a3f6d;fill-opacity:1;fill-rule:nonzero;stroke:none"
         d="m 1351.23,852.66 900.82,625.57 v 625.56 L 1351.23,1483.05 V 852.66" /><path
         id="path36"
         style="fill:#f1476c;fill-opacity:1;fill-rule:nonzero;stroke:none"
         d="m 1799.58,1792.01 -448.35,312.19 446.26,310.41 454.56,-310.82 -452.47,-311.78" /></g></g></svg>