<svg width="480" height="114" viewBox="0 0 480 114" fill="none" xmlns="http://www.w3.org/2000/svg">
<mask id="mask0" mask-type="alpha" maskUnits="userSpaceOnUse" x="0" y="0" width="114" height="114">
<path fill-rule="evenodd" clip-rule="evenodd" d="M0 0H113.966V114H0V0Z" fill="white"/>
</mask>
<g mask="url(#mask0)">
<path fill-rule="evenodd" clip-rule="evenodd" d="M90.185 13.1367L90.0642 13.265C89.7376 13.2547 89.4081 13.3841 89.1738 13.648L79.7671 24.2597V24.3081L60.2583 45.2294L67.2744 48.5759C69.5197 49.6469 72.2009 49.1379 73.8973 47.3185L79.7671 41.0234V61.3753L27.8133 36.5945L27.8099 36.6008L23.5822 34.5875C23.5053 34.5516 23.4221 34.5328 23.3371 34.5328C23.0225 34.5328 22.7671 34.7876 22.7671 35.1028V99.6279C22.7671 99.9511 22.9045 100.259 23.145 100.476C23.613 100.897 24.3335 100.859 24.7547 100.391L34.1671 89.926V89.9226L53.8606 68.8046L46.8445 65.4576C44.5993 64.3866 41.9186 64.8956 40.2217 66.715L34.1671 73.2073V52.571L79.7671 74.3211V74.3217L90.3503 79.4072C90.4273 79.4448 90.5116 79.4636 90.5971 79.4636C90.9118 79.4636 91.1671 79.2088 91.1671 78.8936V14.4044C91.1671 14.0784 91.0275 13.7677 90.7835 13.5517C90.6085 13.3961 90.3988 13.3049 90.1833 13.2752L90.185 13.1367ZM111.119 0C112.693 0 113.969 1.27623 113.969 2.85V111.15C113.969 112.724 112.693 114 111.119 114H2.81875C1.24498 114 -0.03125 112.724 -0.03125 111.15V2.85C-0.03125 1.27623 1.24498 0 2.81875 0H111.119V0Z" fill="#00AAFF"/>
</g>
<path fill-rule="evenodd" clip-rule="evenodd" d="M462.4 21.0755V36.3959H477.746V47.8096L462.4 47.8102L462.402 80.1548C462.429 82.6212 462.918 84.3341 463.8 85.2717C464.694 86.2213 466.201 86.7178 468.371 86.7178C471.187 86.7178 473.941 86.4208 476.633 85.8286L477.21 85.6975L477.666 85.5858L479.579 85.1087L479.906 96.6928L478.293 97.1249C474.857 98.0306 471.708 98.4849 468.843 98.4849C462.141 98.4849 457.183 96.9573 453.985 93.8531C450.89 90.8469 449.31 86.1575 449.203 79.8071L449.199 79.4247L449.197 79.1072V47.8102L440.934 47.8096V36.3959H449.38L451.269 21.0755H462.4ZM317.616 13.5996C322.039 13.5996 325.624 17.1849 325.624 21.6075C325.624 26.0302 322.039 29.6155 317.616 29.6155C313.194 29.6155 309.609 26.0302 309.609 21.6075C309.609 17.1849 313.194 13.5996 317.616 13.5996ZM356.983 45.5407C354.352 45.5407 351.767 46.3409 350.27 47.9592C348.845 49.4987 348.08 51.7411 347.996 54.7234L347.99 55.0346L347.989 55.2854V60.575H366.212V55.6519L366.21 55.4022C366.174 52.0991 365.386 49.6526 363.873 48.0196C362.336 46.362 359.692 45.5407 356.983 45.5407ZM221.928 45.5407C219.297 45.5407 216.713 46.3409 215.215 47.9592C213.79 49.4987 213.026 51.7411 212.942 54.7234L212.935 55.0346L212.934 55.2854V60.575H231.158L231.157 55.6519L231.156 55.4022C231.119 52.0991 230.331 49.6526 228.818 48.0196C227.282 46.362 224.637 45.5407 221.928 45.5407ZM416.061 34.9566C421.609 34.9566 425.971 36.8707 429.015 40.6663C431.874 44.2311 433.346 49.1485 433.456 55.4042L433.461 55.8232L433.463 56.1652V96.8843H420.173L420.173 57.3525C420.127 50.5039 418.128 47.4037 414.041 47.4037C412.097 47.4037 410.079 48.1544 407.969 49.6848C406.023 51.0956 404.299 52.9737 402.796 55.3233L402.572 55.679L402.442 55.8944V96.8843H389.152V36.3674H401.847V41.8781L401.906 41.8114C402.967 40.6469 404.081 39.6209 405.248 38.7329L405.639 38.4422L405.998 38.1862L406.3 37.9805L406.572 37.8009C409.485 35.9091 412.66 34.9566 416.061 34.9566ZM310.675 96.8771H324.021V36.5512H310.675V96.8771ZM264.63 36.5512L275.461 55.4473L286.402 36.5512H301.328L283.375 65.5465L302.623 96.8771H287.355L275.237 76.1092L263.448 96.8771H248.169L267.183 65.8902L249.372 36.5512H264.63ZM356.408 34.9566C363.479 34.9566 368.953 36.9408 372.751 40.9188C376.404 44.7452 378.284 50.1534 378.409 57.0954L378.413 57.4973L378.414 57.8336V70.5201L347.914 70.5212L347.913 75.9322L347.914 76.1802C347.95 79.6577 348.764 82.0865 350.306 83.5052C351.919 84.9889 354.626 85.7596 358.426 85.7596C362.2 85.7596 366.905 85.2044 372.524 84.0935L373.089 83.9806L375.396 83.5075L375.721 95.5738L373.261 96.0201L372.377 96.1769C366.374 97.2303 361.903 97.7894 358.908 97.8584L358.685 97.863L358.307 97.8652C350.059 97.8652 344.045 96.027 340.273 92.2918C336.63 88.6837 334.764 83.2692 334.645 76.0861L334.639 75.6854L334.638 57.8267L334.639 57.483C334.697 50.3649 336.512 44.8353 340.105 40.9393C343.787 36.9459 349.248 34.9566 356.408 34.9566ZM221.358 34.9566C228.429 34.9566 233.903 36.9408 237.701 40.9188C241.354 44.7452 243.234 50.1534 243.358 57.0954L243.363 57.4973L243.365 57.8336V70.5201L212.863 70.5212L212.862 75.9322L212.864 76.1802C212.9 79.6577 213.714 82.0865 215.256 83.5052C216.868 84.9889 219.576 85.7596 223.376 85.7596C227.149 85.7596 231.855 85.2044 237.474 84.0935L238.039 83.9806L240.346 83.5075L240.671 95.5738L238.212 96.0201L237.326 96.1769C231.325 97.2303 226.853 97.7894 223.858 97.8584L223.635 97.863L223.256 97.8652C215.009 97.8652 208.996 96.027 205.224 92.2918C201.58 88.6837 199.714 83.2692 199.595 76.0861L199.589 75.6854L199.588 57.8267L199.589 57.483C199.647 50.3649 201.461 44.8353 205.055 40.9393C208.738 36.9459 214.199 34.9566 221.358 34.9566ZM136.767 16.8H155.412L177.657 74.7964L177.658 16.8H190.686V96.8787H172.518L149.795 38.7353L149.795 96.8787H136.767V16.8V16.8Z" fill="#333650"/>
</svg>
